<svg xmlns="http://www.w3.org/2000/svg" fill="none" viewBox="0 0 24 24" id="Cloudflare-Icon--Streamline-Svg-Logos" height="24" width="24">
  <desc>
    Cloudflare Icon Streamline Icon: https://streamlinehq.com
  </desc>
  <path fill="#fbad41" d="M19.11605 11.2943c-0.078775 0 -0.156475 0.002875 -0.234175 0.005375 -0.0126 0.000675 -0.02495 0.0036 -0.036525 0.0086 -0.041775 0.014225 -0.07355 0.04855 -0.0845 0.0913l-0.333025 1.16325c-0.143575 0.50015 -0.090225 0.962025 0.1511 1.301075 0.2213 0.31365 0.5894 0.497675 1.0363 0.51915l1.8065 0.10955c0.0537 0.002875 0.10025 0.02865 0.12855 0.07125 0.030025 0.0461 0.036775 0.103575 0.01825 0.1554 -0.0297 0.08485 -0.1063 0.1445 -0.19585 0.1525l-1.87705 0.109575c-1.019825 0.04725 -2.116975 0.879325 -2.5019 1.893975l-0.13535 0.358025c-0.011825 0.030125 -0.008375 0.0641 0.009225 0.091225 0.017625 0.027125 0.04725 0.0441 0.079575 0.04555h6.46475c0.07725 0.000325 0.145225 -0.05095 0.16615 -0.1253 0.114825 -0.412675 0.17265 -0.8391 0.1719 -1.267425 0 -2.585 -2.07295 -4.6802 -4.63105 -4.6802" stroke-width="0.25"></path>
  <path fill="#f6821f" d="m16.294425 17.21975 0.1196 -0.4207c0.14395 -0.500175 0.0906 -0.962025 -0.1504 -1.301075 -0.222 -0.31365 -0.58975 -0.497675 -1.037 -0.51915l-8.473925 -0.109575c-0.05345 -0.00095 -0.103225 -0.02745 -0.133925 -0.071225 -0.030125 -0.04605 -0.037025 -0.10355 -0.0186 -0.1554 0.02995 -0.0854 0.107425 -0.145175 0.19765 -0.152525l8.55305 -0.10955c1.015525 -0.0469 2.112675 -0.879325 2.4976 -1.894l0.4877 -1.2889c0.01965 -0.05465 0.024825 -0.1136 0.014325 -0.170775 -0.555725 -2.5141 -2.778675 -4.397 -5.43635 -4.397 -2.44995 0 -4.5286 1.59755 -5.274475 3.818425 -0.502175 -0.38185 -1.1311 -0.557775 -1.758525 -0.49195 -1.1745 0.11815 -2.119825 1.074825 -2.236575 2.26205 -0.030225 0.296525 -0.0084 0.596025 0.064475 0.88505C1.7897375 13.160725 0.25 14.749675 0.25 16.702375c0 0.176525 0.0125325 0.350525 0.0379575 0.520225 0.0104675 0.08235 0.08061 0.14405 0.16364 0.143925H16.10105c0.090525 -0.001475 0.16925 -0.0624 0.193375 -0.14965" stroke-width="0.25"></path>
</svg>