<?xml version="1.0" standalone="no"?><!DOCTYPE svg PUBLIC "-//W3C//DTD SVG 1.1//EN" "http://www.w3.org/Graphics/SVG/1.1/DTD/svg11.dtd"><svg t="1630914698211" class="icon" viewBox="0 0 1024 1024" version="1.1" xmlns="http://www.w3.org/2000/svg" p-id="2425" xmlns:xlink="http://www.w3.org/1999/xlink" width="200" height="200"><defs><style type="text/css">@font-face { font-family: element-icons; src: url("chrome-extension://moombeodfomdpjnpocobemoiaemednkg/fonts/element-icons.woff") format("woff"), url("chrome-extension://moombeodfomdpjnpocobemoiaemednkg/fonts/element-icons.ttf ") format("truetype"); }
</style></defs><path d="M1021.475 515.157v330.81c0 65.658-54.294 132.578-107.325 159.093-30.303 15.152-61.869 18.94-95.96 18.94H189.396C85.859 1024 0 929.302 0 834.604c1.263-215.911 0-431.822 0-648.996C0 114.9 50.506 47.98 111.112 18.94 138.89 6.313 169.194 0 199.497 0h635.107c74.496 1.263 138.89 50.506 169.194 112.375 13.889 27.778 18.94 58.081 18.94 88.385-1.263 104.799-1.263 209.598-1.263 314.397z m-376.267-114.9h7.576c2.525 0 6.313 0 8.839 2.525 50.505 26.515 89.647 68.182 101.01 123.738 13.89 69.445 0 133.84-46.717 189.396-75.758 88.385-217.174 109.85-320.71 56.819-112.375-58.081-179.295-205.81-130.052-334.6 25.253-65.657 64.395-118.687 128.79-151.516 16.414-8.838 35.353-16.414 50.505-26.515 21.465-13.89 23.99-37.88 12.626-59.344-11.364-18.94-36.616-26.516-55.556-18.94-114.9 45.455-190.658 125.001-228.537 243.69-27.779 87.121-17.677 170.455 17.676 253.79 25.253 58.081 63.132 104.799 114.9 143.94 41.668 31.566 87.123 53.031 137.628 64.395 79.546 17.677 157.83 7.576 232.326-26.515 131.314-60.607 220.961-213.386 172.981-368.69-25.253-83.335-80.809-138.891-157.83-172.982-25.252-11.364-53.03-16.415-82.071-23.99-2.525-18.94-6.313-39.142-7.576-59.345-1.263-25.252 23.99-41.667 47.98-30.303 12.627 5.05 23.99 12.626 35.354 20.202 31.566 18.94 60.607 11.364 73.233-18.94 6.313-17.676-1.262-44.192-21.465-56.818-21.464-12.626-45.455-22.727-69.445-32.829-54.293-23.99-123.738 15.152-151.516 63.132-18.94 32.829-13.89 68.183-5.051 102.274 2.525 12.626 12.626 26.515-6.313 35.354-8.839 3.788-17.677 7.576-26.516 12.626-80.808 35.354-130.051 141.416-106.061 229.8 20.202 75.759 111.112 138.89 189.396 112.375 49.243-16.414 113.637-77.02 107.324-141.415-5.05-44.192-15.152-87.122-22.728-131.315z" fill="#E00000" p-id="2426"></path><path d="M547.985 400.256c8.839 42.93 20.202 84.597 26.516 128.79 3.788 26.515-15.152 46.717-44.193 55.556-20.202 6.313-49.243-6.313-60.606-27.778-31.566-61.87 1.262-138.89 78.283-156.568z" fill="#E00000" p-id="2427"></path></svg>